<svg width="20" height="22" viewBox="0 0 20 22" fill="none" xmlns="http://www.w3.org/2000/svg">
<path d="M15.7501 6.75C15.7501 5.1587 15.1179 3.63258 13.9927 2.50736C12.8675 1.38214 11.3414 0.75 9.75006 0.75C8.15876 0.75 6.63264 1.38214 5.50742 2.50736C4.3822 3.63258 3.75006 5.1587 3.75006 6.75C3.75006 13.75 0.750061 15.75 0.750061 15.75H18.7501C18.7501 15.75 15.7501 13.75 15.7501 6.75Z" stroke-width="1.5" stroke-linecap="round" stroke-linejoin="round"/>
<path d="M11.4801 19.75C11.3043 20.0531 11.0519 20.3047 10.7483 20.4795C10.4447 20.6544 10.1005 20.7465 9.75008 20.7465C9.3997 20.7465 9.05547 20.6544 8.75185 20.4795C8.44824 20.3047 8.19589 20.0531 8.02008 19.75" stroke-width="1.5" stroke-linecap="round" stroke-linejoin="round"/>
</svg>
