<svg width="22" height="22" viewBox="0 0 22 22" fill="none" xmlns="http://www.w3.org/2000/svg">
<path d="M10.75 20.75C16.2728 20.75 20.75 16.2728 20.75 10.75C20.75 5.22715 16.2728 0.75 10.75 0.75C5.22715 0.75 0.75 5.22715 0.75 10.75C0.75 16.2728 5.22715 20.75 10.75 20.75Z" stroke-width="1.5" stroke-linecap="round" stroke-linejoin="round"/>
<path d="M7.84003 7.74999C8.07513 7.08166 8.53918 6.5181 9.14998 6.15912C9.76078 5.80015 10.4789 5.66893 11.1772 5.7887C11.8755 5.90848 12.5088 6.27151 12.9651 6.81352C13.4214 7.35552 13.6711 8.04151 13.67 8.74999C13.67 10.75 10.67 11.75 10.67 11.75" stroke-width="1.5" stroke-linecap="round" stroke-linejoin="round"/>
<path d="M10.75 15.75H10.76" stroke-width="1.5" stroke-linecap="round" stroke-linejoin="round"/>
</svg>
